<svg xmlns="http://www.w3.org/2000/svg" viewBox="0 0 512 512" width="512" height="512">
  <circle cx="256" cy="256" r="240" fill="#222" stroke="#444" stroke-width="12" />
  <!-- Bloody Handprint (Stylized) -->
  <g fill="#8a0303" opacity="0.8">
    <circle cx="256" cy="280" r="60" /> <!-- Palm -->
    <path d="M200 230 Q180 150 190 120 Q200 110 210 120 L220 230 Z" /> <!-- Finger 1 -->
    <path d="M240 210 Q240 120 250 90 Q260 80 270 90 L270 210 Z" /> <!-- Finger 2 -->
    <path d="M290 220 Q310 130 320 110 Q330 100 340 110 L330 220 Z" /> <!-- Finger 3 -->
    <path d="M330 260 Q380 200 400 200 Q410 210 400 230 L350 290 Z" /> <!-- Thumb -->
    <path d="M180 280 Q140 240 120 250 Q110 260 120 280 L180 320 Z" /> <!-- Pinky -->
  </g>
  <text x="256" y="440" fill="#fff" font-family="monospace" font-size="40" font-weight="bold" text-anchor="middle" letter-spacing="5">YOU'RE NEXT</text>
</svg>
